# xmcd
#
# Track frame offsets:
#	150
#	12652
#	32730
#	55106
#	79463
#	95591
#	110427
#	131724
#
# Disc length: 2007 seconds
#
# Revision: 0
# Processed by: cddbd v1.5.1PL0 Copyright (c) Steve Scherf et al.
# Submitted via: dBpowerAMP V4.0
#
DISCID=6a07d508
DTITLE=Cathy Hunt - This Partial View
DYEAR=2003
DGENRE=Blues
TTITLE0=Lifter Of My Head
TTITLE1=Run the Race
TTITLE2=Child of God
TTITLE3=Humility
TTITLE4=Heal Me Again
TTITLE5=Freedom
TTITLE6=More Like You
TTITLE7=Child of God (Acoustic)
EXTD=
EXTT0=
EXTT1=
EXTT2=
EXTT3=
EXTT4=
EXTT5=
EXTT6=
EXTT7=
PLAYORDER=
